Ostrich_Walking_Kinematics
version=1
nRows=21
nColumns=28
inDegrees=no
endheader
time	/jointset/pelvis/pelvis_tilt/value	/jointset/pelvis/pelvis_list/value	/jointset/pelvis/pelvis_rotation/value	/jointset/pelvis/pelvis_tx/value	/jointset/pelvis/pelvis_ty/value	/jointset/pelvis/pelvis_tz/value	/jointset/R_hip/R_hip_extension/value	/jointset/R_hip/R_hip_abduction/value	/jointset/R_hip/R_hip_rotation/value	/jointset/knee/R_knee_angle/value	/jointset/knee/R_knee_varus/value	/jointset/knee/R_knee_rotation/value	/jointset/R_ankle/R_ankle_angle/value	/jointset/R_ankle/R_ankle_abduction/value	/jointset/R_ankle/R_ankle_rotation/value	/jointset/R_mtp/R_mtp_angle/value	/jointset/R_mtp/R_mtp_abduction/value	/jointset/R_mtp/R_mtp_rotation/value	/jointset/L_hip/L_hip_extension/value	/jointset/L_hip/L_hip_abduction/value	/jointset/L_hip/L_hip_rotation/value	/jointset/knee_0/L_knee_angle/value	/jointset/knee_0/L_knee_varus/value	/jointset/knee_0/L_knee_rotation/value	/jointset/L_ankle/L_ankle_angle/value	/jointset/L_ankle/L_ankle_abduction/value	/jointset/L_mtp/L_mtp_angle/value
      0.30100000	      0.21247987	     -0.00776322	     -0.00016572	      1.08098000	      1.09260522	     -0.95192200	      0.72685284	     -0.25342530	     -0.57927827	     -1.37743130	     -0.34280361	     -0.19380136	      1.30521656	      0.35990435	     -0.31500051	     -1.97965716	     -0.06944630	     -0.06770795	      0.67069862	     -0.31649103	     -0.55979690	     -1.29476552	     -0.27980770	     -0.11527097	      0.29430091	      0.17005232	     -0.60339174
      0.30500000	      0.21542599	      0.05194100	     -0.00443418	      1.08530000	      1.08975494	     -0.95321000	      0.74867644	     -0.30216885	     -0.53167965	     -1.37219531	     -0.33883822	     -0.19484856	      1.29400456	      0.36681585	     -0.30991812	     -1.98286856	     -0.06648483	     -0.06736447	      0.67203903	     -0.30878365	     -0.57005944	     -1.29655274	     -0.27867672	     -0.12645085	      0.28412215	      0.16635780	     -0.59290580
      0.30900000	      0.21760416	     -0.00296008	     -0.00016771	      1.09154000	      1.09069231	     -0.95137800	      0.71755372	     -0.25260150	     -0.56601377	     -1.33425883	     -0.31913694	     -0.19769694	      1.27310250	      0.37064161	     -0.29421015	     -1.95606031	     -0.06181014	     -0.06418937	      0.67481759	     -0.31096182	     -0.57477881	     -1.30487447	     -0.28681694	     -0.12508670	      0.28979098	      0.16359599	     -0.59012724
      0.31300000	      0.21814870	     -0.01460142	      0.00089891	      1.09646000	      1.09090370	     -0.95107000	      0.71586774	     -0.24681748	     -0.57370718	     -1.32037649	     -0.31182401	     -0.19693248	      1.25841032	      0.37187032	     -0.28652372	     -1.94181842	     -0.04778816	     -0.06161117	      0.67936592	     -0.32471153	     -0.56338181	     -1.31237939	     -0.28615022	     -0.12426814	      0.29242293	      0.16104258	     -0.58523333
      0.31700000	      0.21975441	      0.00628668	     -0.00123432	      1.10070000	      1.09030370	     -0.95117000	      0.72511798	     -0.26517835	     -0.55625389	     -1.31039320	     -0.30679049	     -0.19715588	      1.23923962	      0.37617779	     -0.28049186	     -1.91954802	     -0.03543193	     -0.05736583	      0.66704390	     -0.30684634	     -0.57718387	     -1.30373652	     -0.28569644	     -0.12316300	      0.28717298	      0.15803293	     -0.57700236
      0.32100000	      0.22281920	      0.03227812	     -0.00332422	      1.10448000	      1.09210408	     -0.95147200	      0.73044822	     -0.28417102	     -0.53233938	     -1.29500638	     -0.29799403	     -0.19808789	      1.21660270	      0.38224107	     -0.27295902	     -1.89109915	     -0.02962557	     -0.05244156	      0.64613136	     -0.27303931	     -0.60672183	     -1.28839158	     -0.28831443	     -0.12191020	      0.27886173	      0.15527741	     -0.56893545
      0.32500000	      0.22544418	      0.01925098	      0.00111563	      1.10760000	      1.09120440	     -0.95268000	      0.72064645	     -0.27640779	     -0.53784066	     -1.27576587	     -0.28345892	     -0.19456931	      1.20321253	      0.38173841	     -0.26398105	     -1.88076680	     -0.02912431	     -0.05107881	      0.65182812	     -0.29782298	     -0.59175388	     -1.30056700	     -0.29070204	     -0.12161978	      0.28197539	      0.15486132	     -0.56925659
      0.32900000	      0.22811104	     -0.00417832	      0.00099196	      1.11176000	      1.08908125	     -0.95082400	      0.71210132	     -0.26050435	     -0.56058579	     -1.25885712	     -0.28162982	     -0.19873017	      1.18601057	      0.38992052	     -0.25649708	     -1.86889856	     -0.01974282	     -0.04972024	      0.66636322	     -0.30282161	     -0.57982979	     -1.31482285	     -0.29595199	     -0.12376584	      0.28609437	      0.15124081	     -0.56213565
      0.33300000	      0.22853690	      0.01815491	     -0.00213713	      1.11736000	      1.08890728	     -0.95039600	      0.72191356	     -0.27872908	     -0.54344317	     -1.24869232	     -0.27840794	     -0.20163440	      1.16655713	      0.40025985	     -0.24564113	     -1.84687251	     -0.01814933	     -0.04590495	      0.65953549	     -0.28636315	     -0.59879803	     -1.31410377	     -0.29629058	     -0.12708266	      0.28029639	      0.14755328	     -0.54777857
      0.33700000	      0.22850898	      0.02440319	     -0.00206478	      1.12264000	      1.08742728	     -0.95051600	      0.72423135	     -0.28517982	     -0.53667129	     -1.23552556	     -0.27080529	     -0.19981227	      1.14792399	      0.40287086	     -0.23873661	     -1.82313603	     -0.01103753	     -0.04145087	      0.66082703	     -0.29584378	     -0.59365280	     -1.31700102	     -0.29596944	     -0.12562915	      0.27406905	      0.14734384	     -0.53511446
      0.34100000	      0.22939211	      0.00267035	      0.00110574	      1.12688000	      1.08661343	     -0.95041200	      0.71388853	     -0.27001640	     -0.55146819	     -1.21643166	     -0.26013085	     -0.19762712	      1.12919312	      0.40108713	     -0.23202756	     -1.80250624	      0.00120698	     -0.03785619	      0.67281745	     -0.32574127	     -0.56625462	     -1.32476773	     -0.29711787	     -0.12180583	      0.27085067	      0.14975623	     -0.53002159
      0.34500000	      0.23212879	     -0.00898845	      0.00096105	      1.13040000	      1.08711946	     -0.94942000	      0.70640456	     -0.25946065	     -0.55997144	     -1.19530619	     -0.25199064	     -0.20727530	      1.10545664	      0.41146137	     -0.21067869	     -1.78616996	      0.00450661	     -0.03629936	      0.67118382	     -0.31761502	     -0.57533033	     -1.32131896	     -0.29974285	     -0.12635486	      0.26803021	      0.14953283	     -0.53532739
      0.34900000	      0.23150047	      0.02785895	     -0.00328644	      1.13520000	      1.08548476	     -0.94942000	      0.71976680	     -0.28340656	     -0.53179484	     -1.18401042	     -0.25112495	     -0.20526468	      1.08421948	      0.41030247	     -0.20283169	     -1.76494675	      0.02179082	     -0.03193464	      0.66139601	     -0.29558198	     -0.59193191	     -1.32534020	     -0.29452082	     -0.12659083	      0.27411792	      0.14526166	     -0.53144578
      0.35300000	      0.23169944	      0.01663997	     -0.00116180	      1.13940000	      1.08492503	     -0.94942000	      0.71313804	     -0.27494172	     -0.53873078	     -1.16509105	     -0.23894954	     -0.20489816	      1.06412375	      0.40474534	     -0.19437732	     -1.74906426	      0.03592516	     -0.02960777	      0.65592266	     -0.28271192	     -0.60721401	     -1.32795820	     -0.29966605	     -0.12721635	      0.27740961	      0.14509027	     -0.52754322
      0.35700000	      0.23294211	      0.00247488	      0.00090042	      1.14416000	      1.08424503	     -0.94934800	      0.70665240	     -0.26347141	     -0.54698270	     -1.14903402	     -0.22946193	     -0.20971527	      1.04297735	      0.40786599	     -0.18436611	     -1.72574666	      0.04148717	     -0.02600750	      0.66122846	     -0.29081025	     -0.60110536	     -1.33238435	     -0.30210951	     -0.13173187	      0.27436576	      0.14281226	     -0.52232818
      0.36100000	      0.23528784	      0.01295383	     -0.00174842	      1.14912000	      1.08310713	     -0.94907600	      0.70982192	     -0.26893429	     -0.53632223	     -1.13869120	     -0.22534993	     -0.21646621	      1.01976796	      0.41724539	     -0.17178229	     -1.69647749	      0.04435650	     -0.02104483	      0.67707954	     -0.31893100	     -0.57373510	     -1.34172884	     -0.29991389	     -0.13769810	      0.26811399	      0.13826708	     -0.51561215
      0.36500000	      0.23863887	      0.05813692	     -0.01197104	      1.15240000	      1.07390748	     -0.94842000	      0.72153657	     -0.30180233	     -0.50008919	     -1.12928039	     -0.21799162	     -0.21511183	      0.99466314	      0.41496948	     -0.15554374	     -1.67699961	      0.06171484	     -0.01785297	      0.69654345	     -0.35337681	     -0.54543284	     -1.35900062	     -0.30227357	     -0.13673607	      0.26844909	      0.13733996	     -0.50830969
      0.36900000	      0.23801055	      0.01189267	     -0.00160544	      1.15664000	      1.08227463	     -0.94822000	      0.69901484	     -0.27009319	     -0.53759283	     -1.10444086	     -0.20682152	     -0.20954074	      0.97910877	      0.41321019	     -0.15158673	     -1.65710286	      0.06205134	     -0.01447876	      0.66546263	     -0.29413336	     -0.60034788	     -1.34392098	     -0.30364191	     -0.13256404	      0.26363198	      0.13371945	     -0.49825659
      0.37300000	      0.23841896	     -0.00097738	      0.00097101	      1.16190000	      1.08038982	     -0.94805600	      0.69736376	     -0.26490956	     -0.54873850	     -1.09262847	     -0.19997634	     -0.21464059	      0.95426575	      0.41618423	     -0.13098556	     -1.63635787	      0.07011721	     -0.01114696	      0.67385068	     -0.30561762	     -0.57932016	     -1.35120947	     -0.30352323	     -0.13418929	      0.26376812	      0.13390655	     -0.49775394
      0.37700000	      0.23862840	      0.02019695	     -0.00420111	      1.16710000	      1.07934982	     -0.94758000	      0.70758440	     -0.28064545	     -0.53113162	     -1.08510959	     -0.19567584	     -0.21737029	      0.92916792	      0.41897676	     -0.11154120	     -1.61306820	      0.07882081	     -0.00725858	      0.68269601	     -0.31799550	     -0.56428938	     -1.35742284	     -0.30549894	     -0.13511641	      0.26269300	      0.13234552	     -0.49462631
      0.38100000	      0.23838405	      0.04197866	     -0.00931485	      1.17190000	      1.07890144	     -0.94698000	      0.71362324	     -0.29403562	     -0.51202724	     -1.07341589	     -0.18976616	     -0.21610318	      0.90566880	      0.41895581	     -0.09797301	     -1.58761083	      0.08562446	     -0.00284573	      0.67703416	     -0.30272387	     -0.58217901	     -1.35566006	     -0.31001934	     -0.13374842	      0.26096163	      0.12999631	     -0.48864332
